# xmcd CD database file
#
# Track frame offsets:
#	150
#	10602
#	58975
#	96605
#	127317
#	154592
#	182185
#	207730
#	248107
#	296190
#
# Disc length: 4417 seconds
#
# Revision: 0
# Processed by: cddbd v1.5.2PL0 Copyright (c) Steve Scherf et al.
# Submitted via: CDex 1.51
#
DISCID=a0113f0a
DTITLE=Earl Fatha Hines - Reunion on Brussels - March 17, 1965
DYEAR=1965
DGENRE=Jazz
TTITLE0=Deep forest
TTITLE1=Monday Date, Caution Blues, You can depend on me
TTITLE2=Tea for two
TTITLE3=I've got the world on a string
TTITLE4=Rosetta
TTITLE5=St James Informary, Summertime, These foolish things
TTITLE6=Shiny stockings
TTITLE7=Black coffee
TTITLE8=Canadian sunset, Lullaby of Birdland, Misty, Satin Doll
TTITLE9=Love is just around the corner
EXTD=YEAR: 1965
EXTT0=
EXTT1=
EXTT2=
EXTT3=
EXTT4=
EXTT5=
EXTT6=
EXTT7=
EXTT8=
EXTT9=
PLAYORDER=
